# xmcd
#
# Track frame offsets: 
#        150
#        22045
#        44160
#        63087
#        82632
#        105270
#        124955
#        147292
#        165795
#        186387
#        205395
#        229537
#        249075
#        266735
#        286200
#        306582
#
# Disc length: 4354 seconds
#
# Revision: 1
# Processed by: cddbd v1.5.2PL0 Copyright (c) Steve Scherf et al.
# Submitted via: ExactAudioCopy v0.95a5
#
DISCID=d9110010
DTITLE=Various Artist - EMI 唯我獨尊
DYEAR=1900
DGENRE=
TTITLE0=巫啟賢：愛那麼重
TTITLE1=黃鶯鶯：回心轉意
TTITLE2=張宇：一言難盡
TTITLE3=彭羚：隨愛而飛
TTITLE4=張信哲：過火
TTITLE5=鄺美雲：半個吻
TTITLE6=小剛：二分之一的愛情
TTITLE7=楊采妮：笑著流淚\
TTITLE8=張宇：用心良苦（1996年全新重唱版）
TTITLE9=陳曉娟：我依然是你的情人
TTITLE10=巫啟賢：太傻（1996年國語+粵語全新重唱版）
TTITLE11=吳倩蓮：愛上一個人
TTITLE12=金城武：標準情人
TTITLE13=童欣：背負你的愛
TTITLE14=陳小霞：傀儡尪仔
TTITLE15=謝麗金：暗戀你
EXTD=
EXTT0=
EXTT1=
EXTT2=
EXTT3=
EXTT4=
EXTT5=
EXTT6=
EXTT7=
EXTT8=
EXTT9=
EXTT10=
EXTT11=
EXTT12=
EXTT13=
EXTT14=
EXTT15=
PLAYORDER=
